<svg xmlns="http://www.w3.org/2000/svg" width="411.615" height="312.857" viewBox="0 0 411.615 312.857">
  <g id="Group_2670" data-name="Group 2670" transform="translate(-1117.306 -1530.441)">
    <g id="Group_2667" data-name="Group 2667" transform="translate(1117.806 1530.441)">
      <g id="Group_2647" data-name="Group 2647" transform="translate(47.315)">
        <path id="Path_3848" data-name="Path 3848" d="M283.537,601.632V590.355a2,2,0,0,0-2-2h-2.9a1.832,1.832,0,0,1-1.792-1.406,39.89,39.89,0,0,0-5.024-12.191,1.861,1.861,0,0,1,.243-2.308l2.041-2.041a2,2,0,0,0,0-2.824l-7.973-7.974a2,2,0,0,0-2.824,0l-2.039,2.039a1.859,1.859,0,0,1-2.308.242,39.928,39.928,0,0,0-12.195-5.029,1.83,1.83,0,0,1-1.4-1.791V552.18a2,2,0,0,0-2-2H232.088a2,2,0,0,0-2,2v2.894a1.831,1.831,0,0,1-1.406,1.791,39.907,39.907,0,0,0-12.2,5.028,1.859,1.859,0,0,1-2.308-.242l-2.036-2.037a2,2,0,0,0-2.824,0l-7.973,7.973a2,2,0,0,0,0,2.824l2.039,2.039a1.861,1.861,0,0,1,.242,2.308,39.962,39.962,0,0,0-5.025,12.194,1.83,1.83,0,0,1-1.791,1.406h-2.9a2,2,0,0,0-2,2v11.277a2,2,0,0,0,2,2h2.9a1.831,1.831,0,0,1,1.791,1.406,39.955,39.955,0,0,0,5.026,12.191,1.86,1.86,0,0,1-.242,2.308l-2.041,2.041a2,2,0,0,0,0,2.824l7.973,7.974a2,2,0,0,0,2.824,0l2.043-2.043a1.861,1.861,0,0,1,2.308-.243,39.933,39.933,0,0,0,12.189,5.02,1.83,1.83,0,0,1,1.406,1.791v2.909a2,2,0,0,0,2,2h11.276a2,2,0,0,0,2-2V636.9a1.831,1.831,0,0,1,1.406-1.791,39.928,39.928,0,0,0,12.188-5.02,1.859,1.859,0,0,1,2.307.243l2.045,2.044a2,2,0,0,0,2.824,0l7.973-7.973a2,2,0,0,0,0-2.825l-2.043-2.042a1.861,1.861,0,0,1-.243-2.308,39.891,39.891,0,0,0,5.025-12.19,1.831,1.831,0,0,1,1.791-1.406h2.9A2,2,0,0,0,283.537,601.632Zm-45.814,26.157a31.792,31.792,0,1,1,31.777-31.8A31.787,31.787,0,0,1,237.723,627.789Z" transform="translate(-191.914 -550.182)" fill="#e74c3d"/>
        <path id="Path_3849" data-name="Path 3849" d="M328.021,634.837v-7.685a1.361,1.361,0,0,0-1.361-1.361h-1.978a1.249,1.249,0,0,1-1.221-.958,27.21,27.21,0,0,0-3.423-8.309,1.265,1.265,0,0,1,.165-1.572l1.391-1.392a1.361,1.361,0,0,0,0-1.924L316.16,606.2a1.361,1.361,0,0,0-1.924,0l-1.39,1.388a1.267,1.267,0,0,1-1.573.165,27.237,27.237,0,0,0-8.31-3.427,1.248,1.248,0,0,1-.958-1.22v-1.973a1.361,1.361,0,0,0-1.361-1.361h-7.685a1.361,1.361,0,0,0-1.361,1.361v1.972a1.248,1.248,0,0,1-.958,1.221,27.212,27.212,0,0,0-8.312,3.426,1.267,1.267,0,0,1-1.573-.165l-1.387-1.387a1.362,1.362,0,0,0-1.925,0l-5.433,5.434a1.36,1.36,0,0,0,0,1.924l1.39,1.39a1.269,1.269,0,0,1,.165,1.573,27.178,27.178,0,0,0-3.424,8.31,1.249,1.249,0,0,1-1.221.958h-1.976a1.361,1.361,0,0,0-1.361,1.361v7.685a1.361,1.361,0,0,0,1.361,1.361h1.977a1.248,1.248,0,0,1,1.22.958,27.234,27.234,0,0,0,3.425,8.307,1.267,1.267,0,0,1-.165,1.573l-1.391,1.391a1.362,1.362,0,0,0,0,1.925l5.433,5.434a1.362,1.362,0,0,0,1.925,0l1.393-1.393a1.268,1.268,0,0,1,1.572-.165,27.2,27.2,0,0,0,8.308,3.421,1.249,1.249,0,0,1,.958,1.221v1.983a1.361,1.361,0,0,0,1.361,1.361h7.685A1.361,1.361,0,0,0,302,660.853V658.87a1.248,1.248,0,0,1,.958-1.221,27.18,27.18,0,0,0,8.307-3.422,1.266,1.266,0,0,1,1.572.166l1.394,1.393a1.36,1.36,0,0,0,1.924,0l5.434-5.434a1.362,1.362,0,0,0,0-1.925l-1.393-1.392a1.269,1.269,0,0,1-.165-1.573,27.212,27.212,0,0,0,3.424-8.307,1.249,1.249,0,0,1,1.221-.958h1.979A1.361,1.361,0,0,0,328.021,634.837ZM296.8,651.44a20.443,20.443,0,1,1,20.434-20.452A20.44,20.44,0,0,1,296.8,651.44Z" transform="translate(-184.532 -545.212)" fill="#e74c3d"/>
      </g>
      <g id="Group_2649" data-name="Group 2649" transform="translate(0 147.511)">
        <path id="Path_3850" data-name="Path 3850" d="M205.481,657.175h58.38a6.775,6.775,0,0,1,6.775,6.775v13.791a6.776,6.776,0,0,1-5.92,6.721.978.978,0,0,0-.855.97v7.55a.448.448,0,0,1-.813.262l-5.947-8.316a.986.986,0,0,0-.8-.411H205.481a6.775,6.775,0,0,1-6.775-6.775V663.95A6.775,6.775,0,0,1,205.481,657.175Z" transform="translate(-198.706 -657.175)" fill="none" stroke="#162b4d" stroke-miterlimit="10" stroke-width="1"/>
        <g id="Group_2648" data-name="Group 2648" transform="translate(11.269 11.419)">
          <path id="Path_3851" data-name="Path 3851" d="M249.787,669.785a2.231,2.231,0,1,0,2.23-2.231A2.23,2.23,0,0,0,249.787,669.785Z" transform="translate(-204.857 -667.554)" fill="none" stroke="#162b4d" stroke-miterlimit="10" stroke-width="1"/>
          <path id="Path_3852" data-name="Path 3852" d="M239.577,669.785a2.231,2.231,0,1,0,2.231-2.231A2.23,2.23,0,0,0,239.577,669.785Z" transform="translate(-205.88 -667.554)" fill="none" stroke="#162b4d" stroke-miterlimit="10" stroke-width="1"/>
          <path id="Path_3853" data-name="Path 3853" d="M229.368,669.785a2.231,2.231,0,1,0,2.23-2.231A2.23,2.23,0,0,0,229.368,669.785Z" transform="translate(-206.903 -667.554)" fill="none" stroke="#162b4d" stroke-miterlimit="10" stroke-width="1"/>
          <path id="Path_3854" data-name="Path 3854" d="M219.159,669.785a2.231,2.231,0,1,0,2.23-2.231A2.229,2.229,0,0,0,219.159,669.785Z" transform="translate(-207.926 -667.554)" fill="none" stroke="#162b4d" stroke-miterlimit="10" stroke-width="1"/>
          <path id="Path_3855" data-name="Path 3855" d="M208.949,669.785a2.231,2.231,0,1,0,2.231-2.231A2.23,2.23,0,0,0,208.949,669.785Z" transform="translate(-208.949 -667.554)" fill="none" stroke="#162b4d" stroke-miterlimit="10" stroke-width="1"/>
        </g>
      </g>
      <g id="Group_2650" data-name="Group 2650" transform="translate(356.253 165.101)">
        <path id="Path_3856" data-name="Path 3856" d="M563.275,621.5H540.8a1.688,1.688,0,0,1-1.689-1.689h0a1.689,1.689,0,0,1,1.689-1.689h22.475a1.688,1.688,0,0,1,1.689,1.689h0A1.688,1.688,0,0,1,563.275,621.5Z" transform="translate(-539.111 -618.123)" fill="#172b4d"/>
        <path id="Path_3857" data-name="Path 3857" d="M583.147,621.5H566.882a1.688,1.688,0,0,1-1.689-1.689h0a1.689,1.689,0,0,1,1.689-1.689h16.266a1.689,1.689,0,0,1,1.689,1.689h0A1.688,1.688,0,0,1,583.147,621.5Z" transform="translate(-536.497 -618.123)" fill="#172b4d"/>
        <path id="Path_3858" data-name="Path 3858" d="M550.349,628.251H540.8a1.689,1.689,0,0,1-1.689-1.689h0a1.688,1.688,0,0,1,1.689-1.689h9.549a1.688,1.688,0,0,1,1.689,1.689h0A1.689,1.689,0,0,1,550.349,628.251Z" transform="translate(-539.111 -617.447)" fill="#172b4d"/>
        <path id="Path_3859" data-name="Path 3859" d="M584.375,628.251H554.632a1.689,1.689,0,0,1-1.689-1.689h0a1.688,1.688,0,0,1,1.689-1.689h29.743a1.688,1.688,0,0,1,1.689,1.689h0A1.689,1.689,0,0,1,584.375,628.251Z" transform="translate(-537.725 -617.447)" fill="#172b4d"/>
        <path id="Path_3860" data-name="Path 3860" d="M570.426,635H540.8a1.689,1.689,0,0,1-1.689-1.689h0a1.688,1.688,0,0,1,1.689-1.689h29.626a1.688,1.688,0,0,1,1.689,1.689h0A1.689,1.689,0,0,1,570.426,635Z" transform="translate(-539.111 -616.77)" fill="#172b4d"/>
        <path id="Path_3861" data-name="Path 3861" d="M582.536,635h-9.55a1.689,1.689,0,0,1-1.689-1.689h0a1.688,1.688,0,0,1,1.689-1.689h9.55a1.688,1.688,0,0,1,1.689,1.689h0A1.689,1.689,0,0,1,582.536,635Z" transform="translate(-535.886 -616.77)" fill="#172b4d"/>
      </g>
      <rect id="Rectangle_1099" data-name="Rectangle 1099" width="254.667" height="181.845" rx="12" transform="translate(81.475 101.263)" fill="#162b4d"/>
      <rect id="Rectangle_1100" data-name="Rectangle 1100" width="237.501" height="140.611" rx="10" transform="translate(90.058 109.865)" fill="#fff"/>
      <g id="Group_2654" data-name="Group 2654" transform="translate(112.359 127.965)">
        <rect id="Rectangle_1101" data-name="Rectangle 1101" width="186.688" height="90.249" rx="7.201" transform="translate(6.769 7.301)" fill="#9b9b9b"/>
        <path id="Path_3862" data-name="Path 3862" d="M494.644,588.191v70.386a9.927,9.927,0,0,1-9.937,9.923H318.631a9.926,9.926,0,0,1-9.937-9.923V588.191a9.938,9.938,0,0,1,9.937-9.937H484.707A9.938,9.938,0,0,1,494.644,588.191Z" transform="translate(-308.694 -578.254)" fill="#c7e8fc"/>
        <rect id="Rectangle_1102" data-name="Rectangle 1102" width="62.362" height="62.362" rx="4.861" transform="translate(8.591 20.548)" fill="#fff"/>
        <g id="Group_2651" data-name="Group 2651" transform="translate(77.011 24.196)">
          <path id="Path_3863" data-name="Path 3863" d="M409.629,600h-43.09a2.121,2.121,0,0,1-2.121-2.121h0a2.121,2.121,0,0,1,2.121-2.121h43.09a2.121,2.121,0,0,1,2.121,2.121h0A2.121,2.121,0,0,1,409.629,600Z" transform="translate(-364.418 -595.762)" fill="#aaacaf"/>
          <path id="Path_3864" data-name="Path 3864" d="M389.994,606.134H366.539a2.121,2.121,0,0,1-2.121-2.121h0a2.121,2.121,0,0,1,2.121-2.121h23.454a2.121,2.121,0,0,1,2.121,2.121h0A2.121,2.121,0,0,1,389.994,606.134Z" transform="translate(-364.418 -593.421)" fill="#aaacaf"/>
          <path id="Path_3865" data-name="Path 3865" d="M453.221,606.134H389.757a2.122,2.122,0,0,1-2.123-2.121h0a2.122,2.122,0,0,1,2.123-2.121h63.465a2.122,2.122,0,0,1,2.121,2.121h0A2.122,2.122,0,0,1,453.221,606.134Z" transform="translate(-355.549 -593.421)" fill="#aaacaf"/>
          <path id="Path_3866" data-name="Path 3866" d="M402.827,612.264H366.539a2.122,2.122,0,0,1-2.121-2.123h0a2.122,2.122,0,0,1,2.121-2.121h36.288a2.123,2.123,0,0,1,2.123,2.121h0A2.123,2.123,0,0,1,402.827,612.264Z" transform="translate(-364.418 -591.079)" fill="#aaacaf"/>
          <path id="Path_3867" data-name="Path 3867" d="M421.39,612.264H398.578a2.122,2.122,0,0,1-2.121-2.123h0a2.122,2.122,0,0,1,2.121-2.121H421.39a2.122,2.122,0,0,1,2.121,2.121h0A2.122,2.122,0,0,1,421.39,612.264Z" transform="translate(-352.179 -591.079)" fill="#aaacaf"/>
          <path id="Path_3868" data-name="Path 3868" d="M441.486,612.264H420.476a2.122,2.122,0,0,1-2.121-2.123h0a2.122,2.122,0,0,1,2.121-2.121h21.009a2.123,2.123,0,0,1,2.121,2.121h0A2.123,2.123,0,0,1,441.486,612.264Z" transform="translate(-343.813 -591.079)" fill="#aaacaf"/>
          <path id="Path_3869" data-name="Path 3869" d="M462.09,618.393H366.539a2.122,2.122,0,0,1-2.121-2.121h0a2.121,2.121,0,0,1,2.121-2.121H462.09a2.122,2.122,0,0,1,2.122,2.121h0A2.123,2.123,0,0,1,462.09,618.393Z" transform="translate(-364.418 -588.738)" fill="#aaacaf"/>
          <path id="Path_3870" data-name="Path 3870" d="M419.126,624.522H366.539a2.121,2.121,0,0,1-2.121-2.121h0a2.121,2.121,0,0,1,2.121-2.121h52.587a2.122,2.122,0,0,1,2.123,2.121h0A2.122,2.122,0,0,1,419.126,624.522Z" transform="translate(-364.418 -586.396)" fill="#aaacaf"/>
          <path id="Path_3871" data-name="Path 3871" d="M445.211,624.522H410.725A2.121,2.121,0,0,1,408.6,622.4h0a2.121,2.121,0,0,1,2.121-2.121h34.485a2.122,2.122,0,0,1,2.122,2.121h0A2.122,2.122,0,0,1,445.211,624.522Z" transform="translate(-347.538 -586.396)" fill="#aaacaf"/>
          <path id="Path_3872" data-name="Path 3872" d="M397.437,630.651h-30.9a2.121,2.121,0,0,1-2.121-2.121h0a2.121,2.121,0,0,1,2.121-2.121h30.9a2.121,2.121,0,0,1,2.121,2.121h0A2.121,2.121,0,0,1,397.437,630.651Z" transform="translate(-364.418 -584.055)" fill="#aaacaf"/>
          <path id="Path_3873" data-name="Path 3873" d="M425.845,630.651h-30.9a2.121,2.121,0,0,1-2.121-2.121h0a2.121,2.121,0,0,1,2.121-2.121h30.9a2.121,2.121,0,0,1,2.121,2.121h0A2.121,2.121,0,0,1,425.845,630.651Z" transform="translate(-353.566 -584.055)" fill="#aaacaf"/>
          <path id="Path_3874" data-name="Path 3874" d="M440.634,630.651H422.705a2.121,2.121,0,0,1-2.121-2.121h0a2.121,2.121,0,0,1,2.121-2.121h17.929a2.122,2.122,0,0,1,2.121,2.121h0A2.122,2.122,0,0,1,440.634,630.651Z" transform="translate(-342.962 -584.055)" fill="#aaacaf"/>
          <path id="Path_3875" data-name="Path 3875" d="M409.629,636.78h-43.09a2.121,2.121,0,0,1-2.121-2.121h0a2.121,2.121,0,0,1,2.121-2.121h43.09a2.121,2.121,0,0,1,2.121,2.121h0A2.121,2.121,0,0,1,409.629,636.78Z" transform="translate(-364.418 -581.714)" fill="#aaacaf"/>
          <path id="Path_3876" data-name="Path 3876" d="M447.59,600H404.5a2.121,2.121,0,0,1-2.121-2.121h0a2.121,2.121,0,0,1,2.121-2.121H447.59a2.122,2.122,0,0,1,2.121,2.121h0A2.122,2.122,0,0,1,447.59,600Z" transform="translate(-349.917 -595.762)" fill="#aaacaf"/>
        </g>
        <g id="Group_2653" data-name="Group 2653">
          <path id="Path_3877" data-name="Path 3877" d="M494.644,588.191v2.958H308.694v-2.958a9.938,9.938,0,0,1,9.937-9.937H484.707A9.938,9.938,0,0,1,494.644,588.191Z" transform="translate(-308.694 -578.254)" fill="#162b4d"/>
          <g id="Group_2652" data-name="Group 2652" transform="translate(146.293 4.375)">
            <path id="Path_3878" data-name="Path 3878" d="M419.157,583.724a2.3,2.3,0,1,1-2.3-2.3A2.3,2.3,0,0,1,419.157,583.724Z" transform="translate(-414.549 -581.42)" fill="#dee3fc"/>
            <path id="Path_3879" data-name="Path 3879" d="M427.685,583.724a2.3,2.3,0,1,1-2.3-2.3A2.3,2.3,0,0,1,427.685,583.724Z" transform="translate(-411.291 -581.42)" fill="#dee3fc"/>
            <path id="Path_3880" data-name="Path 3880" d="M436.211,583.724a2.3,2.3,0,1,1-2.3-2.3A2.3,2.3,0,0,1,436.211,583.724Z" transform="translate(-408.033 -581.42)" fill="#dee3fc"/>
          </g>
        </g>
      </g>
      <g id="Group_2656" data-name="Group 2656" transform="translate(208.995 58.569)">
        <path id="Path_3881" data-name="Path 3881" d="M583.453,683.2H477.046a10.626,10.626,0,0,1-10.626-10.626h0a10.626,10.626,0,0,1,10.626-10.626H583.453a10.626,10.626,0,0,1,10.626,10.626h0A10.626,10.626,0,0,1,583.453,683.2Z" transform="translate(-466.42 -661.951)" fill="#fff" stroke="#e74c3d" stroke-miterlimit="10" stroke-width="0.896"/>
        <g id="Group_2655" data-name="Group 2655" transform="translate(104.173 4.242)">
          <path id="Path_3882" data-name="Path 3882" d="M572.406,671.458a5.651,5.651,0,1,1-5.651-5.651A5.651,5.651,0,0,1,572.406,671.458Z" transform="translate(-561.105 -665.807)" fill="none" stroke="#e74c3d" stroke-miterlimit="10" stroke-width="1.672"/>
          <line id="Line_255" data-name="Line 255" x2="3.12" y2="3.12" transform="translate(9.646 9.647)" fill="none" stroke="#e74c3d" stroke-linecap="round" stroke-miterlimit="10" stroke-width="1.672"/>
        </g>
      </g>
      <rect id="Rectangle_1103" data-name="Rectangle 1103" width="107.55" height="8.859" rx="4.026" transform="translate(155.522 303.999)" fill="#162b4d"/>
      <g id="Group_2661" data-name="Group 2661" transform="translate(133.548 161.256)">
        <path id="Path_3903" data-name="Path 3903" d="M15.937,0h5A15.938,15.938,0,0,1,36.871,15.938v5A15.937,15.937,0,0,1,20.933,36.871h-5A15.938,15.938,0,0,1,0,20.933v-5A15.937,15.937,0,0,1,15.937,0Z" fill="#162b4d"/>
        <path id="Path_3895" data-name="Path 3895" d="M476.893,593.483a4.43,4.43,0,1,1-4.429-4.429A4.429,4.429,0,0,1,476.893,593.483Z" transform="translate(-454.028 -584.437)" fill="#fff"/>
        <path id="Path_3896" data-name="Path 3896" d="M482.206,607.408v6.539a1.07,1.07,0,0,1-1.07,1.07h-16.33a1.069,1.069,0,0,1-1.07-1.07v-6.539a9.234,9.234,0,0,1,9.235-9.235h0A9.235,9.235,0,0,1,482.206,607.408Z" transform="translate(-454.535 -583.362)" fill="#fff"/>
      </g>
      <g id="Group_2666" data-name="Group 2666" transform="translate(350.287 79.576)">
        <rect id="Rectangle_1108" data-name="Rectangle 1108" width="60.328" height="60.328" rx="7.667" fill="none" stroke="#162b4d" stroke-miterlimit="10" stroke-width="1"/>
        <g id="Group_2665" data-name="Group 2665" transform="translate(16.768 9.513)">
          <g id="Group_2664" data-name="Group 2664">
            <path id="Path_3899" data-name="Path 3899" d="M572.772,562.777h-.316v-3.456a10.285,10.285,0,1,0-20.571,0v3.456h-.069a2.887,2.887,0,0,0-2.887,2.887v13.023a2.887,2.887,0,0,0,2.887,2.887h20.956a2.886,2.886,0,0,0,2.886-2.887V565.664A2.886,2.886,0,0,0,572.772,562.777Zm-18.282-3.456a7.681,7.681,0,0,1,15.362,0v3.456H554.49Z" transform="translate(-548.929 -549.034)" fill="#e74c3d"/>
            <path id="Path_3900" data-name="Path 3900" d="M564.766,567.915a3.357,3.357,0,1,0-5.048,2.895.6.6,0,0,1,.3.673l-.583,2.155a2.016,2.016,0,1,0,3.891,0l-.578-2.132a.6.6,0,0,1,.313-.679A3.345,3.345,0,0,0,564.766,567.915Z" transform="translate(-548.015 -547.478)" fill="#fff"/>
          </g>
          <path id="Path_3901" data-name="Path 3901" d="M574.42,582.987H550.167a1.238,1.238,0,0,1-1.238-1.238h0a1.238,1.238,0,0,1,1.238-1.238H574.42a1.238,1.238,0,0,1,1.238,1.238h0A1.238,1.238,0,0,1,574.42,582.987Z" transform="translate(-548.929 -545.88)" fill="#e74c3d"/>
          <path id="Path_3902" data-name="Path 3902" d="M574.42,586.8H550.167a1.238,1.238,0,0,1-1.238-1.238h0a1.238,1.238,0,0,1,1.238-1.238H574.42a1.238,1.238,0,0,1,1.238,1.238h0A1.237,1.237,0,0,1,574.42,586.8Z" transform="translate(-548.929 -545.498)" fill="#e74c3d"/>
        </g>
      </g>
      <ellipse id="Ellipse_387" data-name="Ellipse 387" cx="3.5" cy="4" rx="3.5" ry="4" transform="translate(305 262.399)" fill="#fff"/>
      <ellipse id="Ellipse_388" data-name="Ellipse 388" cx="4.5" cy="4" rx="4.5" ry="4" transform="translate(285 262.399)" fill="#fff"/>
    </g>
    <rect id="Rectangle_1109" data-name="Rectangle 1109" width="6" height="17" transform="translate(1322.806 1813.84)" fill="#162b4d"/>
  </g>
</svg>
